<?xml version="1.0" encoding="utf-8"?>
<!-- Generator: Adobe Illustrator 19.0.0, SVG Export Plug-In . SVG Version: 6.00 Build 0)  -->
<svg version="1.1" id="Layer_1" xmlns="http://www.w3.org/2000/svg" xmlns:xlink="http://www.w3.org/1999/xlink" x="0px" y="0px"
	 viewBox="0 0 150 150" style="enable-background:new 0 0 150 150;" xml:space="preserve">
<style type="text/css">
	.st0{fill:#3A0803;stroke:#FFFFFF;stroke-width:2.5516;stroke-miterlimit:10;}
	.st1{fill:#FFFF2E;}
	.st2{fill:#ED1C24;}
	.st3{fill:#FFFFFF;}
</style>
<g id="XMLID_28_">
	<circle id="XMLID_2_" class="st0" cx="73" cy="75.7" r="67.7"/>
	<g id="XMLID_5_">
		<path id="XMLID_13_" class="st1" d="M57.1,63.1c-0.1-2.6-0.2-5.8-0.3-9l-0.1,0c-0.6,2.9-1.4,6.2-2.2,8.9l-2.4,8.9l-3.6,0.5
			l-2.3-8.2c-0.7-2.5-1.4-5.5-1.9-8.3l-0.1,0c-0.1,3-0.2,6.4-0.3,9.2l-0.3,8.4l-4.3,0.6l1.1-22.2l6.2-0.9l2.1,7.1
			c0.7,2.5,1.3,5.1,1.8,7.6l0.1,0c0.6-2.6,1.2-5.6,1.9-8.2l2.1-7.6l6.1-0.9L62,70.9l-4.5,0.6L57.1,63.1z"/>
		<path id="XMLID_15_" class="st1" d="M80.1,60.1c0.1,5.8-3.8,9.1-7.8,9.6c-4.4,0.6-7.7-2-7.8-7.1c0-5.2,3.1-8.9,7.9-9.6
			C77,52.4,80.1,55.3,80.1,60.1z M69.3,61.8c0,2.7,1.1,4.7,3.1,4.4c1.8-0.3,2.9-2.3,2.9-5.2c0-2.4-0.9-4.7-3-4.4
			C70.1,56.9,69.3,59.4,69.3,61.8z"/>
		<path id="XMLID_18_" class="st1" d="M86.1,51.4l2.1,7.1c0.4,1.3,0.7,2.5,0.9,3.8l0.1,0c0.2-1.3,0.5-2.6,0.8-4l1.8-7.7l4.9-0.7
			l-5.4,16.8l-4.6,0.7L81,52.2L86.1,51.4z"/>
		<path id="XMLID_20_" class="st1" d="M103.5,44.5c0,1.4-1,2.6-2.5,2.8c-1.5,0.2-2.4-0.8-2.4-2.1c0-1.4,0.9-2.7,2.4-2.9
			C102.5,42.1,103.4,43.1,103.5,44.5z M98.9,65.6l-0.1-16l4.6-0.7l0.1,16L98.9,65.6z"/>
		<path id="XMLID_23_" class="st1" d="M110.7,57.5c0.2,2,2.1,2.7,4.2,2.4c1.6-0.2,2.9-0.6,4.1-1.2l0.6,3.3c-1.5,0.9-3.4,1.5-5.4,1.7
			c-5.1,0.7-8-2-8-7c0-4.1,2.3-8.9,7.4-9.6c4.8-0.7,6.7,3.1,6.7,7c0,0.8-0.1,1.6-0.1,2L110.7,57.5z M116.2,53.3
			c0-1.2-0.5-3.2-2.6-2.9c-1.9,0.3-2.7,2.3-2.8,3.6L116.2,53.3z"/>
		<path id="XMLID_26_" class="st1" d="M123.2,57.8c0.9,0.4,2.6,0.8,4,0.6c1.4-0.2,2-0.8,2-1.6c0-0.8-0.5-1.1-2.2-1.5
			c-3.1-0.7-4.3-2.3-4.3-4.2c0-3,2.3-5.6,6-6.1c1.7-0.2,3.3,0,4.2,0.3l-0.8,3.5c-0.7-0.3-2-0.6-3.2-0.5c-1.1,0.2-1.8,0.7-1.8,1.6
			c0,0.8,0.6,1.1,2.4,1.5c2.8,0.6,4,2,4.1,4.4c0,3-2.1,5.5-6.4,6.1c-1.9,0.3-3.7,0.1-4.8-0.4L123.2,57.8z"/>
	</g>
	<g id="XMLID_3_">
		<path id="XMLID_6_" class="st2" d="M18.3,85.9l0.1-0.1c0,0-0.1-0.1-0.1-0.2c0-0.3,0.1-0.7,0.3-1.1c0.2-0.4,0.5-0.7,1-1l0.1-0.2
			c0.3-0.4,0.5-0.6,0.7-0.8l0.3-0.5c0.1-0.1,0.2-0.2,0.3-0.2l0.4-0.1c0.2-0.4,0.3-0.7,0.4-0.7l0.5-0.4c0,0,0.1,0,0.2,0.1
			c0.1,0.1,0.1,0.1,0.2,0.1c0.1,0,0.1-0.1,0.1-0.1l-0.2-0.5c0-0.2,0.1-0.4,0.3-0.6c0.2-0.3,0.4-0.5,0.6-0.7c0.1-0.2,0.4-0.5,0.7-0.7
			l0.5-0.7c0.2-0.2,0.4-0.3,0.6-0.5c0.2-0.2,0.5-0.5,0.9-1.1c0.4-0.5,0.7-0.9,0.9-1c0.2-0.1,0.6-0.4,1-0.8l0-0.2l0-1
			c0-0.1,0-0.1,0.1-0.1c0,0,0.3,0.1,0.7,0.2c0-0.1,0.1-0.2,0.1-0.2c0.2,0,0.3,0.2,0.4,0.7c0,0.4-0.1,0.7-0.4,0.8
			c-0.3,0.1-0.5,0.8-0.8,1.9l-0.1,0.4c-0.6,0.4-1,1.1-1.3,2c0,0.2-0.1,0.4-0.2,0.5l-0.4,0c-0.2,0.3-0.3,0.6-0.3,1
			c0,0.4-0.1,0.6-0.3,0.6l-0.3,0c-0.2,0-0.4,0.2-0.4,0.6c-0.1,0.4-0.1,0.6-0.1,0.6c-0.3,0-0.6,0.4-0.8,1c-0.1,0.2-0.3,0.5-0.6,0.8
			L23.2,84l-0.4,0.4c-0.3,0.3-0.7,0.7-1,1.4c-0.3,0.6-0.6,1.1-0.9,1.5c-0.2,0.3-0.3,0.6-0.3,0.7c0,0.3,0.4,0.4,1.3,0.3
			c0.1,0,0.3,0,0.5,0.1c0.2,0.1,0.4,0.1,0.6,0.1c0.2,0,0.5,0.1,0.7,0.2c0.2,0.1,0.6,0.2,1.2,0.2l0.7,0.1l0.7-0.1l0.1,0l0.8-0.1
			c0.3,0,0.6-0.3,0.8-0.7c0.2-0.4,0.4-0.9,0.7-1.4c0.3-0.5,0.5-0.8,0.5-1l0.2-0.3c0.1-0.1,0.2-0.4,0.3-0.8c0.1-0.4,0.3-0.6,0.7-0.8
			c0.3-0.4,0.4-0.6,0.4-0.8l-0.1-0.4c0-0.1,0.1-0.2,0.3-0.5l0.4-1c0.1-0.3,0.2-0.5,0.3-0.8c0.1-0.3,0.2-0.6,0.3-0.9
			c0-0.3,0.1-0.5,0.1-0.5c0,0,0.2-0.2,0.4-0.5c0.2-0.4,0.4-0.6,0.5-0.6l0.2-0.2c0.1-0.1,0.2-0.3,0.4-0.4c0.1-0.9,0.2-1.3,0.3-1.4
			l0.1-0.4c0.1-0.1,0.2-0.2,0.4-0.4s0.2-0.4,0.2-0.4l0.2-0.1c0.1-0.2,0.2-0.4,0.4-0.5l-0.2-0.6l0-0.1c0-0.2,0.1-0.7,0.4-1.6
			c0.3-0.9,0.5-1.4,0.7-1.4c0.5-0.1,0.9,0.2,1.2,0.7c0.4,0.5,0.5,1.4,0.6,2.6c0,0.3-0.1,0.6-0.4,1c-0.3,0.4-0.5,0.9-0.7,1.7
			c-0.2,0.8-0.5,1.2-0.7,1.4c-0.2,0.2-0.4,0.5-0.5,1c-0.1,0.5-0.2,1-0.4,1.3c-0.1,0.4-0.3,0.7-0.5,0.9c-0.2,0.2-0.3,0.7-0.5,1.3
			c-0.1,0.2-0.2,0.4-0.5,0.4c-0.3,0.1-0.4,0.1-0.4,0.2c0,1-0.3,1.8-1,2.3c-0.2,0.1-0.3,0.4-0.3,0.8c0,0.4-0.1,0.7-0.2,1
			c-0.1,0.3-0.2,0.4-0.2,0.5c0,0.2,0.1,0.3,0.2,0.2c0.5-0.1,1-0.2,1.3-0.5c0.4-0.3,0.7-0.5,1.1-0.7c0.4-0.2,0.8-0.4,1.2-0.7
			c0.3,0.3,0.6,0.4,0.8,0.3s0.5,0.1,0.7,0.4l0.9,0.4c0.3,0.1,0.4,0.3,0.4,0.6c0,0.5-0.2,0.8-0.6,1c-0.4,0.2-0.7,0.4-0.9,0.6
			c-0.2,0.2-0.4,0.3-0.6,0.3c-0.2,0.1-0.6,0.2-1.1,0.5s-1.1,0.6-1.6,1.1l-0.1,0c-0.1,0-0.2-0.1-0.4-0.2c0,0,0-0.1,0,0l-1.1,0.5
			c0,0-0.1,0-0.3,0l-0.1,0c-0.1,0-0.4,0.1-0.9,0.3c-0.2-0.1-0.3-0.1-0.3-0.1c-0.1,0-0.5,0.6-1,1.9c-0.6,1.2-0.8,1.9-0.8,2l0,0.5
			c0,0.1-0.1,0.3-0.2,0.5c-0.1,0.2-0.2,0.4-0.2,0.7c0,0.2-0.1,0.5-0.2,1l-0.5-0.1c0,0.1,0,0.2,0,0.3c0,0.1,0,0.3,0.1,0.4l0,0.2
			c0,0.1-0.1,0.3-0.2,0.4l0,0.4c0,0.3-0.1,0.6-0.2,0.9c-0.1,0.3-0.2,0.7-0.2,1.2c0,0.2-0.1,0.5-0.3,1l0.2,1.8l-0.2,1.3l-0.3,0.3
			c-0.1,0-0.1,0.1-0.1,0.3c0,0.2-0.1,0.3-0.2,0.3c-0.1,0-0.3,0-0.4-0.1c-0.1-0.1-0.3-0.2-0.7-0.3c-0.3-0.1-0.7-0.4-1-1l-0.7-0.6
			c-0.2-0.1-0.3-0.2-0.3-0.3c-0.1-0.1-0.2-0.3-0.4-0.5c-0.2-0.2-0.3-0.5-0.3-0.9c0-0.4,0.2-0.9,0.5-1.5l0-0.2c0,0,0-0.1,0.1-0.2
			c0.1-0.1,0.2-0.3,0.3-0.7l0.3-0.8c0.2-0.5,0.3-0.8,0.5-0.9c0.2-0.1,0.3-0.2,0.3-0.2L24,98.4c-0.1,0-0.1-0.1-0.1-0.1
			c0-0.9,0.3-1.7,0.8-2.3l0.3-0.6c0.2-0.4,0.3-0.7,0.4-0.9c0.1-0.2,0.3-0.6,0.4-1c0.1-0.5,0.3-1,0.6-1.7l0-0.1
			c0-0.4-0.1-0.6-0.4-0.5l-0.5,0.2l-0.4,0.1c-0.8,0.1-1.3,0-1.5-0.2c-0.2-0.2-0.3-0.3-0.4-0.3l-0.5,0.1c-0.5,0.1-0.8,0-1-0.2
			c-0.2-0.2-0.3-0.3-0.3-0.2l-1.7,0.7c-0.1,0-0.1-0.1-0.2-0.2c-0.1-0.1-0.2-0.2-0.2-0.2c-0.1,0-0.2,0.1-0.3,0.2
			c-0.1,0.1-0.2,0.1-0.2,0.1l-0.6,0l-0.3,0.1c-0.3,0-0.8-0.2-1.5-0.6c-0.7-0.4-1-1-1-1.7c0-0.4,0.1-0.7,0.4-0.8
			c0.3-0.2,0.5-0.3,0.5-0.4l1.6-1.9L18.3,85.9z"/>
		<path id="XMLID_8_" class="st2" d="M58.3,88.6l0.7-0.4c0.2-0.2,0.5-0.5,0.7-0.8l0.9-0.8c0.5-0.4,0.8-0.6,1-0.7l0.4,0.1
			c0,0,0.1-0.1,0.3-0.4c0.2-0.2,0.4-0.4,0.6-0.4c0.3,0,0.7,0.1,1.2,0.5c0.5,0.4,0.8,0.8,0.8,1.2l-0.1,0.9c0,0.1,0.1,0.5,0.2,1.2
			l0,0.2l-0.1,0.7l0.1,0.7l-0.3,1.3c0,0.3,0.1,0.5,0.3,0.5c0.3-0.3,0.5-0.5,0.7-0.6l0.3-0.4c0.1-0.2,0.2-0.2,0.3-0.3
			c0.1,0,0.2-0.1,0.3-0.3c0.1-0.2,0.2-0.3,0.4-0.4c0.2-0.1,0.3-0.2,0.3-0.4c0.9-1.2,1.6-1.9,2.1-2.2c0.1,0,0.2-0.1,0.3-0.3
			c0.2-0.2,0.3-0.3,0.4-0.4l0.5-0.5l0.2,0.1l0,0c0,0,0.2-0.1,0.4-0.3c0.2-0.2,0.4-0.3,0.5-0.3c0.6-0.1,1.1,0.1,1.6,0.5
			c0.4,0.4,0.6,0.7,0.6,1L73.9,88l0.2,0.8l0,0.5L74,89.9c0,0.1,0.1,0.2,0.2,0.4c0.1,0.2,0.2,0.3,0.2,0.4c-0.2,0.3-0.3,0.4-0.3,0.5
			l0.1,0.5l-0.1,1.5c0,0.1,0.1,0.3,0.3,0.6c0.1-0.1,0.2-0.2,0.4-0.2c0.2-0.1,0.3-0.2,0.4-0.2c0.1-0.1,0.1-0.1,0.1-0.1s0,0,0,0
			c0,0,0.1,0,0.3,0.1l0.1,0c0.1,0,0.2-0.2,0.2-0.4c0-0.3,0.2-0.5,0.5-0.7l0.6,0c0,0,0.1-0.2,0.2-0.5c0.1-0.3,0.4-0.7,1-1.3
			c0.6-0.6,1-0.9,1.3-1c0.3,0,0.4,0.1,0.4,0.3c0,0.1,0,0.3-0.1,0.6c0.1,0.2,0.2,0.4,0.2,0.6c0,0.3-0.3,0.7-0.8,1.2
			c-0.5,0.5-0.9,1-1.2,1.6l-0.1,0.1l-0.5,0c0,0-0.1,0.2-0.2,0.4c-0.1,0.3-0.3,0.5-0.4,0.5c-0.2,0.1-0.3,0.1-0.3,0.2L76,95.3
			c-0.1,0.1-0.4,0.5-1,1.2c-0.5,0.7-1,1.1-1.4,1.2c-0.2,0-0.5,0-0.9-0.2c-0.4-0.1-0.7-0.3-0.9-0.4c-0.2-0.2-0.4-0.4-0.6-0.6
			c-0.3-0.2-0.4-0.7-0.4-1.4c0,0,0-0.1,0.1-0.2c0.1-0.1,0.1-0.2,0.1-0.2c-0.4-0.5-0.6-0.8-0.6-1.1c0-0.1,0-0.2,0-0.4
			c0-0.1,0-0.2,0-0.4L70.6,92l0.1-0.5l-0.1-0.3l0.1-1.4c0-0.2-0.1-0.3-0.4-0.3c-0.1,0-0.2,0.1-0.3,0.3c-0.1,0.2-0.3,0.3-0.4,0.4
			c-0.2,0.1-0.4,0.4-0.6,0.8c-0.3,0.2-0.5,0.4-0.6,0.6c-0.1,0.2-0.2,0.3-0.3,0.3c0,0-0.1,0-0.2,0c-0.2,0.2-0.3,0.3-0.3,0.5l0,0.1
			l0.1,0.2c0,0.2-0.1,0.3-0.4,0.5c-0.2,0.2-0.5,0.6-0.9,1.2c-0.2,0-0.3,0.1-0.3,0.1l-0.3,0.7c-0.2,0.1-0.3,0.3-0.5,0.6l-0.3,0.2
			c-0.1,0.2-0.2,0.5-0.3,0.6l-0.1,0.3c-0.7,1-1.2,1.5-1.5,1.6c-0.3,0-0.6-0.3-1-1.1c-0.4-0.7-0.6-1.3-0.6-1.8l0.1-1
			c0,0-0.1-0.2-0.2-0.4l0-0.1c0,0,0.1-0.2,0.2-0.6l0-0.8c0,0,0-0.1-0.1-0.2l0-0.1c0,0,0.1-0.2,0.2-0.5l-0.2-0.8l0.1-0.4L61.7,90
			l0.1-0.8c0-0.1,0-0.1-0.1-0.3c-0.1-0.1-0.2-0.2-0.2-0.2c-0.1,0-0.5,0.3-1,0.8c-0.6,0.5-0.9,0.9-1.1,1.1c-0.2,0.3-0.5,0.6-0.8,0.9
			c-0.3,0.2-0.6,0.7-0.7,1.5c0,0,0,0.1-0.1,0.1c0,0-0.1-0.1-0.2-0.1l-0.1,0c-0.1,0-0.3,0.4-0.8,1.3l-0.1,0.1l-0.5,0
			c-0.4,0.1-0.6,0.5-0.6,1.4c0,0.2-0.1,0.3-0.3,0.4c-0.2,0.1-0.4,0.3-0.5,0.5c-0.1,0.3-0.3,0.5-0.5,0.8c-0.4,0.2-0.6,0.4-0.6,0.5
			c0,0-0.2,0.3-0.5,0.9c-0.4,0.6-0.6,0.9-0.6,1c0,0.1-0.1,0.2-0.3,0.4c-0.2,0.1-0.3,0.3-0.3,0.3L52,101c0,0.3-0.3,0.5-0.8,0.5
			c-1,0.1-1.5-0.9-1.5-3.1c0-0.2,0.1-0.5,0.3-0.9c0.2-0.3,0.4-0.7,0.6-1.2c0.3-0.4,0.7-0.9,1.1-1.6c0.4-0.7,0.7-1.2,1-1.4l0.3-0.6
			c0-0.2,0-0.4,0.1-0.5c0.1-0.1,0.1-0.3,0.1-0.4c0-0.3-0.1-0.4-0.2-0.4c-0.3,0-0.6,0.2-0.7,0.4c-0.2,0.2-0.4,0.3-0.6,0.4
			c-0.2,0.1-0.4,0.2-0.4,0.4c-0.2,0.1-0.5,0.4-0.7,0.8c-0.3,0.4-0.4,0.6-0.5,0.7c-0.1,0.1-0.2,0.2-0.2,0.4c-0.1,0.2-0.2,0.3-0.3,0.3
			c-0.1,0-0.2,0.1-0.3,0.2c-0.1,0.1-0.3,0.2-0.5,0.2c-0.1,0-0.3-0.1-0.4-0.4c-0.1-0.3-0.2-0.5-0.2-0.6c0-1.3,0.8-2.5,2.4-3.7
			c0.2-0.2,0.4-0.3,0.5-0.4c0.1-0.1,0.2-0.3,0.4-0.3l0.1-0.2c0.1-0.2,0.6-0.6,1.5-1.1l0.3,0l1.7-0.7c0.7-0.3,1.1,0.5,1.1,2.4l0,0.5
			l0.1,0.2c0.3-0.3,0.6-0.6,0.8-0.9c0.3-0.3,0.5-0.5,0.6-0.7C57.7,89.1,57.9,88.8,58.3,88.6z"/>
		<path id="XMLID_10_" class="st2" d="M83.5,86.3l0.5-0.5c0.4-0.1,0.6-0.3,0.6-0.8c0-0.4,0.3-0.8,0.8-1.2l0.3-0.5
			c0.2-0.3,0.9-0.7,2-1.3c0.3-0.2,0.5-0.4,0.6-0.6c0,0,0.1-0.1,0.1-0.1l0.4,0c0.2,0,0.5-0.1,0.8-0.3c0.3-0.2,0.7-0.3,1-0.3l1-0.2
			c0.1,0,0.2,0,0.4,0.1c0.2,0.1,0.5,0.1,0.8,0.1c0.4-0.1,0.7,0.1,1,0.4c0.3,0.3,0.5,0.6,0.5,0.9c0,0.5-0.3,1.1-0.8,1.8
			c-0.5,0.6-0.9,1-1.3,1.1c-0.3,0.3-0.5,0.6-0.6,0.7c-0.1,0.1-0.3,0.2-0.5,0.4c-0.2,0.2-0.3,0.3-0.4,0.3c-0.1,0-0.1,0-0.1,0
			c0,0-0.1-0.1-0.1,0c-0.3,0-0.5,0.4-0.9,1.2l-0.4,0c-0.3,0.2-0.5,0.5-0.5,0.7c-0.1,0.2-0.3,0.4-0.5,0.4c-0.6,0.7-1,1.1-1.2,1.2
			c0,0-0.1,0-0.3-0.1c-0.1,0.2-0.2,0.4-0.2,0.6c0,0.2-0.1,0.4-0.4,0.4l-0.3,0.4l-0.2,0l-0.5,0.6c-0.2,0-0.5,0.2-0.8,0.4
			c0,0.2-0.1,0.5-0.1,0.8C84,93.2,84,93.4,84,93.5c0,0.5,0.4,0.7,1.3,0.6l1.2-0.4c0.3,0,0.6-0.2,0.9-0.4c0.3-0.2,0.6-0.3,0.9-0.4
			c0.1,0,0.2-0.1,0.4-0.2l0.2,0.1c0.1-0.3,0.3-0.6,0.6-0.8c0.3-0.3,0.6-0.4,0.7-0.4l0.2-0.2c0.1-0.2,0.2-0.4,0.3-0.5l0.2-0.2
			c0.1-0.2,0.3-0.3,0.4-0.3l0.3,0l0.1-0.1c0.2-0.5,0.5-0.8,0.8-0.9c0.4-0.1,0.6-0.3,0.7-0.5c0.1-0.2,0.2-0.3,0.5-0.4
			c0.2-0.1,0.4-0.2,0.6-0.4c0.2-0.2,0.3-0.4,0.6-0.7c0.2-0.2,0.4-0.4,0.5-0.5c0.1-0.1,0.2-0.2,0.2-0.2c0.1,0,0.1,0.1,0.1,0.2
			c0,0.2,0,0.2,0.1,0.2c0.1,0,0.1,0,0.1-0.1c0-0.1,0-0.2-0.1-0.3l0-0.2c0-0.3,0.1-0.5,0.4-0.6l1.1-0.9c0-0.4,0.1-0.6,0.3-0.7
			c0.2-0.1,0.3-0.2,0.4-0.3c0.1-0.1,0.2-0.1,0.3-0.2c0.2,0,0.3,0.1,0.3,0.4l-0.1,0.7l0.1,0.7c0,0.1-0.1,0.3-0.2,0.5
			c-0.2,0.2-0.3,0.5-0.4,0.9c-0.1,0.4-0.2,0.6-0.3,0.7l-0.1,0c-0.3,0.4-0.5,0.6-0.7,0.7c-0.2,0.1-0.3,0.2-0.4,0.4l-0.8,1.2
			c-0.2,0.2-0.3,0.4-0.4,0.5c-0.1,0.2-0.2,0.2-0.3,0.3l-0.2-0.2c0,0,0,0-0.1,0c-0.2,0-0.3,0.1-0.3,0.4c0,0.2-0.1,0.4-0.3,0.6
			c-0.5,0.3-0.8,0.6-1,0.8l-0.1,0.1l-0.4,0.1c-0.2,0-0.4,0.2-0.4,0.6c-0.1,0.4-0.3,0.6-0.7,0.7s-0.7,0.3-0.8,0.4
			c0,0-0.1,0.1-0.2,0.1c-0.1,0.1-0.3,0.2-0.7,0.5l-2.1,1.1c-0.2,0.1-0.3,0.2-0.3,0.2l-0.7,0.2c-0.1,0-0.2,0-0.3-0.2
			c-0.1-0.1-0.2-0.2-0.2-0.2l-0.4,0.2c-0.3,0.2-0.6,0.3-0.9,0.3c-0.2,0-0.3,0-0.5-0.1c-0.2-0.1-0.4-0.2-0.5-0.2
			c-0.5,0.1-0.8-0.3-1-1.1l-0.3,0.1c-0.1,0-0.3-0.6-0.7-1.8c-0.1-0.1-0.3-0.2-0.5-0.2c-0.2,0-0.3-0.2-0.3-0.5c0-0.8,0.1-1.4,0.5-1.7
			c0.3-0.3,0.5-0.6,0.5-0.7l0.3-1.4c0.1-0.1,0.1-0.3,0.2-0.6l0.6-1.2C83.1,87.1,83.3,86.8,83.5,86.3z M88.7,83.9l-0.3,0.2
			c-0.1,0-0.3,0.2-0.6,0.5c-0.3,0.3-0.6,0.6-0.9,0.8c-0.3,0.2-0.6,0.7-0.9,1.4c-0.3,0.8-0.5,1.2-0.5,1.3c0,0.1,0.1,0.2,0.1,0.1
			l0.8-0.5c0.3-0.2,0.6-0.5,0.9-0.7c0.3-0.3,0.7-0.6,1.2-1.1l0.2-0.2c0-0.1,0.2-0.2,0.5-0.5c0.3-0.2,0.5-0.4,0.6-0.6l0.2-0.1
			c0.3-0.5,0.6-0.9,0.8-1c0.3-0.1,0.4-0.3,0.4-0.4c0-0.2-0.2-0.3-0.5-0.3c-0.1,0-0.3,0.1-0.6,0.3l-0.6,0.1c-0.1,0-0.2,0.1-0.5,0.4
			L88.7,83.9z"/>
	</g>
	<g id="XMLID_4_">
		<path id="XMLID_29_" class="st3" d="M115.2,107.2c-0.2,0-0.3,0-0.5-0.1c-0.4-0.3-0.5-0.8-0.2-1.1c1.1-1.6,1.5-2.8,1.1-3.7
			c-0.2-0.6-0.8-0.9-1.4-1.3c-0.8-0.5-1.6-1-1.9-2.1c-0.3-1.3,0.5-2.4,1.2-3.3c0.5-0.6,0.9-1.2,0.8-1.6c-0.2-0.7-1.5-1.1-2.6-1.4
			c-1.3-0.4-2.6-0.8-2.8-1.9c-0.2-1.7,2.5-2.8,5.6-4.2c1-0.4,2.3-1,3-1.4c-1-0.2-2.8-0.2-4-0.3c-3.7-0.1-5.5-0.2-5.8-1.4
			c-0.3-1.4,1.8-2.3,7.9-4.5c1.1-0.4,2.3-0.8,3.4-1.2c-1.5,0.1-3.5,0.3-5.2,0.5c-8.1,0.9-10.2,0.9-10.6-0.4
			c-0.4-1.4,1.8-2.4,10.4-5.7c2.5-1,5.7-2.2,7.3-3c-2.4,0.1-8.9,0.8-26.2,4C94.5,73,94,72.7,94,72.3c-0.1-0.4,0.2-0.9,0.6-0.9
			c28.5-5.3,28.8-4.2,29.1-3.1c0.3,1.3-1.4,2.1-9.4,5.2c-2.9,1.1-7,2.7-8.7,3.7c1.8,0.1,5.5-0.3,8.2-0.6c7.1-0.7,8.5-0.8,8.7,0.4
			c0.2,1.1-1.1,1.7-6.2,3.5c-2,0.7-5.1,1.8-6.3,2.5c0.9,0.1,2.5,0.2,3.7,0.2c3.9,0.1,5.8,0.2,6,1.5c0.2,1.3-1.5,2-4.4,3.2
			c-1.5,0.7-4.4,1.9-4.6,2.6c0.1,0.1,1.1,0.4,1.6,0.5c1.5,0.4,3.3,1,3.7,2.6c0.3,1.2-0.5,2.2-1.1,3c-0.6,0.8-1,1.3-0.9,1.9
			c0.1,0.4,0.5,0.7,1.2,1.1c0.7,0.4,1.6,1,2.1,2.1c0.6,1.4,0.1,3.2-1.3,5.3C115.7,107.1,115.4,107.2,115.2,107.2z"/>
	</g>
</g>
</svg>
